<mxfile host="multicloud-diagrams" agent="PIP package multicloud-diagrams. Generate resources in draw.io compatible format for Cloud infrastructure. Copyrights @ Roman Tsypuk 2023. MIT license." type="MultiCloud">
	<diagram id="diagram_1" name="AWS components">
		<mxGraphModel dx="1015" dy="661" grid="1" gridSize="10" guides="1" tooltips="1" connect="1" arrows="1" fold="1" page="1" pageScale="1" pageWidth="850" pageHeight="1100" math="0" shadow="1">
			<root>
				<mxCell id="0"/>
				<mxCell id="1" parent="0"/>
				<mxCell id="vertex:chime_voice_connector:arn:aws:chime:us-east-1:123456789012:vc/xxxsomeid" value="&lt;b&gt;Name&lt;/b&gt;: chime_voice_connector&lt;BR&gt;&lt;b&gt;ARN&lt;/b&gt;: arn:aws:chime:us-east-1:123456789012:vc/xxxsomeid&lt;BR&gt;-----------&lt;BR&gt;&lt;b&gt;name&lt;/b&gt;: asterisk&lt;BR&gt;&lt;b&gt;CreationDate&lt;/b&gt;: 2023-11-11&lt;BR&gt;&lt;b&gt;Encryption&lt;/b&gt;: Enabled&lt;BR&gt;&lt;b&gt;OutboundHostName&lt;/b&gt;: xxxsomeid.voiceconnector.chime.com&lt;BR&gt;&lt;b&gt;AllowedHostList&lt;/b&gt;: 122.122.xxx.xxx&lt;BR&gt;&lt;b&gt;CallsPerSecond&lt;/b&gt;: 5&lt;BR&gt;&lt;b&gt;UserAuth&lt;/b&gt;: Enabled&lt;BR&gt;&lt;b&gt;port&lt;/b&gt;: 5060&lt;BR&gt;&lt;b&gt;CallingPlan&lt;/b&gt;: NO&lt;BR&gt;&lt;b&gt;PhoneNumbers&lt;/b&gt;: +XXXXXXXXXXX&lt;BR&gt;&lt;b&gt;Logging&lt;/b&gt;: Enabled&lt;BR&gt;&lt;b&gt;KinesisVideo&lt;/b&gt;: Disabled" style="sketch=0;outlineConnect=0;gradientColor=#FF5252;gradientDirection=north;fillColor=#C7131F;strokeColor=#ffffff;dashed=0;verticalLabelPosition=bottom;verticalAlign=top;align=left;html=1;fontSize=12;fontStyle=0;aspect=fixed;shape=mxgraph.aws4.resourceIcon;resIcon=mxgraph.aws4.chime;" parent="1" vertex="1">
					<mxGeometry width="78" height="78" as="geometry"/>
				</mxCell>
			</root>
		</mxGraphModel>
	</diagram>
</mxfile>